<svg xmlns="http://www.w3.org/2000/svg" xmlns:xlink="http://www.w3.org/1999/xlink" width="500" zoomAndPan="magnify" viewBox="0 0 375 374.999991" height="500" preserveAspectRatio="xMidYMid meet" version="1.0"><defs><g/><clipPath id="id1"><path d="M 30.117188 151 L 73.617188 151 L 73.617188 224.710938 L 30.117188 224.710938 Z M 30.117188 151 " clip-rule="nonzero"/></clipPath></defs><g clip-path="url(#id1)"><path fill="rgb(0%, 0%, 0%)" d="M 66.164062 156.480469 C 61.519531 152.445312 55.1875 150.523438 49.078125 151.320312 C 42.855469 152.128906 37.230469 155.640625 33.753906 160.835938 C 32.640625 162.503906 31.769531 164.328125 31.148438 166.234375 C 30.453125 168.378906 30.179688 170.585938 30.117188 172.832031 C 30.117188 173.910156 30.117188 174.988281 30.117188 176.066406 C 30.117188 178.789062 30.117188 181.511719 30.117188 184.238281 C 30.117188 187.847656 30.117188 191.457031 30.117188 195.066406 C 30.117188 198.800781 30.117188 202.535156 30.117188 206.265625 C 30.117188 209.363281 30.117188 212.457031 30.117188 215.554688 C 30.117188 217.25 30.117188 218.945312 30.117188 220.640625 C 30.117188 220.765625 30.117188 220.886719 30.117188 221.011719 C 30.117188 221.070312 30.140625 221.113281 30.171875 221.144531 C 30.171875 221.148438 30.175781 221.148438 30.175781 221.152344 C 30.179688 221.152344 30.179688 221.15625 30.183594 221.15625 C 30.214844 221.1875 30.257812 221.210938 30.320312 221.210938 C 32.636719 221.210938 34.957031 221.210938 37.273438 221.210938 C 40.589844 221.210938 43.902344 221.210938 47.21875 221.210938 C 47.535156 221.210938 47.855469 221.210938 48.171875 221.210938 C 48.222656 221.210938 48.273438 221.210938 48.324219 221.210938 C 48.339844 221.210938 48.355469 221.210938 48.375 221.210938 C 48.863281 221.269531 49.34375 221.363281 49.820312 221.488281 C 50.496094 221.742188 51.042969 222.238281 51.308594 222.917969 C 51.449219 223.421875 51.546875 223.929688 51.613281 224.445312 C 51.59375 224.582031 51.703125 224.644531 51.8125 224.632812 C 51.921875 224.644531 52.03125 224.582031 52.011719 224.445312 C 52.078125 223.929688 52.183594 223.421875 52.324219 222.917969 C 52.589844 222.246094 53.121094 221.742188 53.792969 221.496094 C 54.277344 221.367188 54.765625 221.273438 55.257812 221.210938 C 55.277344 221.214844 55.292969 221.210938 55.308594 221.210938 C 57.601562 221.210938 59.894531 221.210938 62.183594 221.210938 C 65.515625 221.210938 68.847656 221.210938 72.183594 221.210938 C 72.597656 221.210938 73.007812 221.210938 73.421875 221.210938 C 73.480469 221.210938 73.527344 221.1875 73.558594 221.15625 C 73.5625 221.15625 73.5625 221.152344 73.566406 221.152344 C 73.566406 221.148438 73.570312 221.148438 73.570312 221.144531 C 73.601562 221.113281 73.625 221.070312 73.625 221.011719 C 73.625 219.933594 73.625 218.855469 73.625 217.777344 C 73.625 215.054688 73.625 212.328125 73.625 209.605469 C 73.625 205.996094 73.625 202.386719 73.625 198.777344 C 73.625 195.042969 73.625 191.308594 73.625 187.578125 C 73.625 184.480469 73.625 181.386719 73.625 178.289062 C 73.625 176.59375 73.625 174.898438 73.625 173.203125 C 73.625 173.078125 73.625 172.957031 73.625 172.832031 C 73.527344 166.605469 70.898438 160.585938 66.164062 156.480469 Z M 73.222656 176.0625 C 73.222656 178.789062 73.222656 181.511719 73.222656 184.238281 C 73.222656 187.847656 73.222656 191.457031 73.222656 195.066406 C 73.222656 198.800781 73.222656 202.53125 73.222656 206.265625 C 73.222656 209.363281 73.222656 212.457031 73.222656 215.554688 C 73.222656 217.25 73.222656 218.945312 73.222656 220.640625 C 73.222656 220.699219 73.222656 220.753906 73.222656 220.808594 C 70.980469 220.808594 68.738281 220.808594 66.496094 220.808594 C 63.164062 220.808594 59.832031 220.808594 56.5 220.808594 C 56.105469 220.808594 55.707031 220.808594 55.308594 220.808594 C 55.292969 220.808594 55.277344 220.808594 55.257812 220.808594 C 54.761719 220.746094 54.277344 220.644531 53.792969 220.515625 C 53.121094 220.269531 52.589844 219.761719 52.324219 219.089844 C 52.183594 218.59375 52.078125 218.089844 52.011719 217.574219 C 52.015625 217.558594 52.015625 217.542969 52.011719 217.527344 C 52.011719 217.476562 52.011719 217.425781 52.011719 217.375 C 52.011719 217.265625 51.921875 217.175781 51.8125 217.175781 C 51.703125 217.175781 51.613281 217.265625 51.613281 217.375 C 51.613281 217.425781 51.613281 217.476562 51.613281 217.523438 C 51.609375 217.539062 51.609375 217.558594 51.613281 217.574219 C 51.546875 218.089844 51.449219 218.59375 51.308594 219.089844 C 51.042969 219.769531 50.496094 220.269531 49.820312 220.519531 C 49.34375 220.648438 48.863281 220.75 48.375 220.808594 C 48.355469 220.808594 48.339844 220.808594 48.324219 220.808594 C 48.273438 220.808594 48.222656 220.808594 48.171875 220.808594 C 45.921875 220.808594 43.671875 220.808594 41.421875 220.808594 C 38.105469 220.808594 34.789062 220.808594 31.476562 220.808594 C 31.15625 220.808594 30.839844 220.808594 30.519531 220.808594 C 30.519531 219.800781 30.519531 218.789062 30.519531 217.777344 C 30.519531 215.054688 30.519531 212.328125 30.519531 209.605469 C 30.519531 205.996094 30.519531 202.386719 30.519531 198.777344 C 30.519531 195.042969 30.519531 191.308594 30.519531 187.574219 C 30.519531 184.480469 30.519531 181.386719 30.519531 178.289062 C 30.519531 176.59375 30.519531 174.898438 30.519531 173.199219 C 30.519531 173.078125 30.519531 172.957031 30.519531 172.832031 C 30.566406 171.109375 30.730469 169.410156 31.140625 167.730469 C 31.503906 166.257812 32.035156 164.824219 32.703125 163.460938 C 34.039062 160.742188 35.960938 158.324219 38.296875 156.390625 C 43.261719 152.28125 50.042969 150.667969 56.339844 152.019531 C 62.445312 153.328125 67.773438 157.3125 70.699219 162.8125 C 72.335938 165.886719 73.167969 169.355469 73.222656 172.832031 C 73.222656 173.910156 73.222656 174.988281 73.222656 176.0625 Z M 73.222656 176.0625 " fill-opacity="1" fill-rule="nonzero"/></g><g fill="rgb(0%, 0%, 0%)" fill-opacity="1"><g transform="translate(33.83237, 214.609047)"><g><path d="M 1.363281 -45 C 5.273438 -45 5.546875 -41.773438 5.546875 -32.820312 L 5.546875 -12.636719 C 5.546875 -3.683594 5.273438 -0.453125 1.363281 -0.453125 L 1.363281 0 L 13.589844 0 L 13.589844 -0.453125 C 9.683594 -0.453125 9.410156 -3.683594 9.410156 -12.636719 L 9.410156 -20 C 11.363281 -19.136719 15.863281 -17.863281 19.863281 -17.863281 C 29.957031 -17.863281 35.410156 -24.773438 35.410156 -32.183594 C 35.410156 -40.273438 30 -46.363281 20.320312 -46.363281 C 15.046875 -46.363281 11.820312 -45.457031 6.820312 -45.457031 L 1.363281 -45.457031 Z M 9.410156 -20.457031 L 9.410156 -44.273438 C 12.183594 -45.273438 14.363281 -45.730469 17.726562 -45.730469 C 26.183594 -45.730469 31.5 -40.363281 31.5 -32.136719 C 31.5 -26.683594 28.089844 -18.773438 19.046875 -18.773438 C 15.089844 -18.773438 11.726562 -19.5 9.410156 -20.457031 Z M 9.410156 -20.457031 "/></g></g></g><g fill="rgb(0%, 0%, 0%)" fill-opacity="1"><g transform="translate(74.238908, 214.609047)"><g><path d="M 1.363281 0 L 13.589844 0 L 13.589844 -0.453125 C 9.683594 -0.453125 9.410156 -3.683594 9.410156 -12.636719 L 9.410156 -44.273438 C 12.183594 -45.273438 14.363281 -45.730469 17.726562 -45.730469 C 26.183594 -45.730469 31.5 -41.09375 31.5 -33.546875 C 31.5 -28.089844 27.820312 -22.5 22.136719 -22.5 C 17.910156 -22.5 15.820312 -25.089844 13.136719 -25.089844 C 12.320312 -25.089844 11.546875 -24.636719 11.546875 -23.546875 C 11.546875 -20.457031 16.363281 -20.273438 20.773438 -13.636719 C 27.957031 -2.863281 29.226562 0 31.320312 0 L 38.273438 0 L 38.273438 -0.453125 C 33.09375 -0.453125 28.863281 -8.546875 25.273438 -14.136719 C 21.589844 -19.863281 12 -20.5 12 -23.457031 C 12 -24.5 12.773438 -24.636719 13.320312 -24.636719 C 15.226562 -24.636719 18.136719 -21.726562 22.410156 -21.726562 C 30.320312 -21.726562 35.410156 -27.363281 35.410156 -33.59375 C 35.410156 -41 30 -46.363281 20.320312 -46.363281 C 15.046875 -46.363281 11.820312 -45.457031 6.820312 -45.457031 L 1.363281 -45.457031 L 1.363281 -45 C 5.273438 -45 5.546875 -41.773438 5.546875 -32.820312 L 5.546875 -12.636719 C 5.546875 -3.683594 5.273438 -0.453125 1.363281 -0.453125 Z M 1.363281 0 "/></g></g></g><g fill="rgb(0%, 0%, 0%)" fill-opacity="1"><g transform="translate(116.14534, 214.609047)"><g><path d="M 1.363281 -7.953125 C 1.363281 -3.226562 4.363281 0.910156 9.636719 0.910156 C 18.683594 0.910156 24 -7.089844 24 -18.136719 C 24 -20.320312 23.910156 -22.136719 23.726562 -23.589844 L 29.363281 -8.726562 C 31.09375 -4.136719 31.320312 -0.453125 24.910156 -0.453125 L 24.910156 0 L 39.820312 0 L 39.820312 -0.453125 C 37.046875 -0.453125 35.59375 -2.953125 33.59375 -7.953125 L 19.046875 -46.363281 L 18.589844 -46.363281 C 15.726562 -38.820312 14.046875 -34.320312 11.273438 -27 C 10.820312 -25.820312 11.046875 -24.589844 12.320312 -24.589844 C 14.910156 -24.589844 16.273438 -29.363281 18.457031 -29.363281 C 19.046875 -29.363281 19.546875 -29 19.546875 -28.136719 C 19.546875 -23.410156 1.363281 -19.136719 1.363281 -7.953125 Z M 5.226562 -8.820312 C 5.226562 -20.046875 20.046875 -21.957031 20.046875 -28.046875 C 20.046875 -29.226562 19.410156 -29.820312 18.546875 -29.820312 C 16.136719 -29.820312 14.453125 -25.046875 12.363281 -25.046875 C 11.636719 -25.046875 11.273438 -25.589844 11.863281 -27.183594 L 17.089844 -41.09375 L 22.589844 -26.589844 C 23.410156 -23.910156 23.546875 -21.410156 23.546875 -18.046875 C 23.546875 -10.589844 19.957031 -1.273438 12.363281 -1.273438 C 7.910156 -1.273438 5.226562 -4.546875 5.226562 -8.820312 Z M 5.226562 -8.820312 "/></g></g></g><g fill="rgb(0%, 0%, 0%)" fill-opacity="1"><g transform="translate(158.233583, 214.609047)"><g><path d="M 0 -45 C 3.453125 -45 4.546875 -41.59375 8.683594 -33.683594 C 11.5 -28.410156 15.089844 -22.226562 16.636719 -19.226562 L 16.636719 -12.636719 C 16.636719 -3.683594 16.363281 -0.453125 12.453125 -0.453125 L 12.453125 0 L 24.726562 0 L 24.726562 -0.453125 C 20.820312 -0.453125 20.546875 -3.683594 20.546875 -12.636719 L 20.546875 -19.226562 C 22.089844 -22.226562 25.683594 -28.410156 28.5 -33.683594 C 32.636719 -41.59375 33.726562 -45 37.183594 -45 L 37.183594 -45.457031 L 27.457031 -45.457031 L 27.457031 -45 L 28.636719 -45 C 29.910156 -45 31.183594 -44.546875 31.183594 -42.910156 C 31.183594 -39.910156 23.546875 -26.136719 20.410156 -20.183594 C 17.589844 -25.683594 9.183594 -39.5 9.183594 -42.59375 C 9.183594 -44.410156 10.363281 -45 11.636719 -45 L 12.636719 -45 L 12.636719 -45.457031 L 0 -45.457031 Z M 0 -45 "/></g></g></g><g fill="rgb(0%, 0%, 0%)" fill-opacity="1"><g transform="translate(197.685647, 214.609047)"><g/></g></g><g fill="rgb(0%, 0%, 0%)" fill-opacity="1"><g transform="translate(215.866581, 214.609047)"><g><path d="M 1.363281 -0.453125 L 1.363281 0 L 13.636719 0 L 13.636719 -0.453125 C 9.726562 -0.453125 9.453125 -3.683594 9.453125 -12.636719 L 9.453125 -22.320312 C 9.453125 -24.457031 10.273438 -26.320312 12.636719 -26.320312 C 15.863281 -26.320312 18.183594 -22.320312 23.726562 -22.320312 C 27.320312 -22.320312 29.546875 -24.636719 29.546875 -27.320312 L 29.089844 -27.320312 C 29.089844 -25.726562 27.457031 -24.726562 25.726562 -24.726562 C 21.726562 -24.726562 19.226562 -27.546875 14.726562 -27.546875 C 12 -27.546875 10 -26.089844 9.453125 -24.863281 L 9.453125 -45 L 16.953125 -45 C 27.410156 -45 33.410156 -42.546875 33.410156 -39.5 L 33.410156 -39.320312 L 33.863281 -39.320312 L 33.863281 -45.457031 L 1.363281 -45.457031 L 1.363281 -45 C 5.273438 -45 5.546875 -41.773438 5.546875 -32.820312 L 5.546875 -12.636719 C 5.546875 -3.683594 5.273438 -0.453125 1.363281 -0.453125 Z M 1.363281 -0.453125 "/></g></g></g><g fill="rgb(0%, 0%, 0%)" fill-opacity="1"><g transform="translate(253.364242, 214.609047)"><g><path d="M 22.957031 0.910156 C 34.273438 0.910156 43.183594 -9.089844 43.183594 -22.726562 C 43.183594 -36.363281 34.273438 -46.363281 22.957031 -46.363281 C 11.636719 -46.363281 2.726562 -36.363281 2.726562 -22.726562 C 2.726562 -9.089844 11.636719 0.910156 22.957031 0.910156 Z M 22.957031 -45.820312 C 32.363281 -45.820312 39.09375 -36 39.09375 -22.726562 C 39.09375 -9.453125 31.726562 0.363281 22.957031 0.363281 C 14.183594 0.363281 6.820312 -9.453125 6.820312 -22.726562 C 6.820312 -36 13.546875 -45.820312 22.957031 -45.820312 Z M 22.957031 -45.820312 "/></g></g></g><g fill="rgb(0%, 0%, 0%)" fill-opacity="1"><g transform="translate(301.54293, 214.609047)"><g><path d="M 1.363281 0 L 13.589844 0 L 13.589844 -0.453125 C 9.683594 -0.453125 9.410156 -3.683594 9.410156 -12.636719 L 9.410156 -44.273438 C 12.183594 -45.273438 14.363281 -45.730469 17.726562 -45.730469 C 26.183594 -45.730469 31.5 -41.09375 31.5 -33.546875 C 31.5 -28.089844 27.820312 -22.5 22.136719 -22.5 C 17.910156 -22.5 15.820312 -25.089844 13.136719 -25.089844 C 12.320312 -25.089844 11.546875 -24.636719 11.546875 -23.546875 C 11.546875 -20.457031 16.363281 -20.273438 20.773438 -13.636719 C 27.957031 -2.863281 29.226562 0 31.320312 0 L 38.273438 0 L 38.273438 -0.453125 C 33.09375 -0.453125 28.863281 -8.546875 25.273438 -14.136719 C 21.589844 -19.863281 12 -20.5 12 -23.457031 C 12 -24.5 12.773438 -24.636719 13.320312 -24.636719 C 15.226562 -24.636719 18.136719 -21.726562 22.410156 -21.726562 C 30.320312 -21.726562 35.410156 -27.363281 35.410156 -33.59375 C 35.410156 -41 30 -46.363281 20.320312 -46.363281 C 15.046875 -46.363281 11.820312 -45.457031 6.820312 -45.457031 L 1.363281 -45.457031 L 1.363281 -45 C 5.273438 -45 5.546875 -41.773438 5.546875 -32.820312 L 5.546875 -12.636719 C 5.546875 -3.683594 5.273438 -0.453125 1.363281 -0.453125 Z M 1.363281 0 "/></g></g></g></svg>
